<svg xmlns="http://www.w3.org/2000/svg" width="1200" height="720" viewBox="0 0 1200 720">
  <rect width="100%" height="100%" fill="#071022"/>
  <defs>
    <linearGradient id="g3" x1="0" x2="1">
      <stop offset="0%" stop-color="#06b6d4"/>
      <stop offset="100%" stop-color="#f472b6"/>
    </linearGradient>
  </defs>
  <g transform="translate(80,80)">
    <rect width="1040" height="560" rx="20" fill="rgba(255,255,255,0.02)" stroke="rgba(255,255,255,0.035)"/>
    <g transform="translate(48,48)">
      <text x="0" y="40" font-family="'Syne',sans-serif" font-size="42" fill="#fff" font-weight="800">Labaku</text>
      <text x="0" y="74" font-family="'Inter',sans-serif" font-size="16" fill="#9fb6c7">HPP Calculator · Inventory · Kasir</text>

      <!-- pie chart -->
      <g transform="translate(28,140)">
        <path d="M160 80 A80 80 0 0 1 240 118 L160 80 Z" fill="#06b6d4"/>
        <path d="M160 80 A80 80 0 0 1 110 30 L160 80 Z" fill="#8b5cf6"/>
        <path d="M160 80 A80 80 0 0 1 60 118 L160 80 Z" fill="#f59e0b"/>
      </g>

      <g transform="translate(260,140)">
        <rect x="0" y="0" width="520" height="160" rx="10" fill="#061026" stroke="rgba(255,255,255,0.03)"/>
        <text x="18" y="34" font-family="'Inter',sans-serif" font-size="14" fill="#cfeefe">Rincian Modal Produk</text>
        <text x="18" y="70" font-family="'Inter',sans-serif" font-size="22" fill="#fff" font-weight="700">Bahan Baku: Rp 3.250.000</text>
      </g>
    </g>
  </g>
</svg>